<svg width="72" height="69" viewBox="0 0 72 69" fill="none" xmlns="http://www.w3.org/2000/svg">
<path fill-rule="evenodd" clip-rule="evenodd" d="M20 2.59173C16.975 3.96673 13.662 5.84273 12.637 6.75973C11.613 7.67673 8.35 13.2567 5.387 19.1597L0 29.8937V43.4097V56.9267H4.5H9L9.017 45.1767C9.033 33.9707 9.171 33.1947 11.989 28.4267L14.943 23.4267L15.222 45.9267L15.5 68.4267H36H56.5L56.778 45.9267L57.057 23.4267L60.011 28.4267C62.829 33.1947 62.967 33.9707 62.983 45.1767L63 56.9267H67.5H72V43.4097V29.8937L66.613 19.1597C63.65 13.2567 60.372 7.65773 59.329 6.71773C58.286 5.77673 54.847 3.86473 51.688 2.46773C46.697 0.259734 44.601 -0.062267 35.721 0.00873299C27.06 0.077733 24.661 0.472733 20 2.59173ZM43.569 7.67673C40.352 16.4077 36.406 25.9197 36 25.9197C35.594 25.9197 31.648 16.4077 28.431 7.67673C27.85 6.09973 28.598 5.92673 36 5.92673C43.402 5.92673 44.15 6.09973 43.569 7.67673Z" fill="#064E3B"/>
</svg>
